# xmcd
#
# Track frame offsets: 
#        150
#        17445
#        30094
#        43459
#        56277
#        71408
#        86131
#        99739
#        112572
#        124751
#        139479
#        155724
#        174487
#        191757
#
# Disc length: 2788 seconds
#
# Revision: 0
# Processed by: cddbd v1.5.1PL0 Copyright (c) Steve Scherf et al.
# Submitted via: ExactAudioCopy v0.95a3
#
DISCID=b70ae20e
DTITLE=黑鸭子 - 伴你二十年 Ⅰ(伴奏)
DYEAR=1900
DGENRE=Pop
TTITLE0=涛声依旧
TTITLE1=打起手鼓唱起歌
TTITLE2=我爱你塞北的雪
TTITLE3=在希望的田野上
TTITLE4=春天的故事
TTITLE5=思念
TTITLE6=祝酒歌
TTITLE7=十五的月亮
TTITLE8=月亮走我也走
TTITLE9=让世界充满爱
TTITLE10=弯弯的月亮
TTITLE11=血染的风采
TTITLE12=三百六十五里路
TTITLE13=今天是你的生日
EXTD=
EXTT0=
EXTT1=
EXTT2=
EXTT3=
EXTT4=
EXTT5=
EXTT6=
EXTT7=
EXTT8=
EXTT9=
EXTT10=
EXTT11=
EXTT12=
EXTT13=
PLAYORDER=
